<?xml version="1.0" encoding="utf-8"?>
<!-- Generator: Adobe Illustrator 25.4.1, SVG Export Plug-In . SVG Version: 6.00 Build 0)  -->
<svg version="1.1" id="Layer_1" xmlns="http://www.w3.org/2000/svg" xmlns:xlink="http://www.w3.org/1999/xlink" x="0px" y="0px" viewBox="0 0 665.4 78" style="enable-background:new 0 0 665.4 78;" xml:space="preserve">
  <style type="text/css">
	.st0{fill:red;}
	.st1{fill:none;stroke:red;stroke-miterlimit:10;}
</style>
  <g>
    <g>
      <g>
        <rect x="105.4" y="16.7" class="st0" width="3.8" height="41.6" />
      </g>
      <g>
        <polygon class="st0" points="157.6,16.7 169.6,16.7 169.6,20.2 165.5,20.2 165.5,58.4 161.7,58.4 161.7,20.2 157.6,20.2 			" />
      </g>
      <g>
        <polygon class="st0" points="102,16.7 102,58.4 98,58.4 92.3,33.1 92.3,58.4 88.6,58.4 88.6,16.7 92,16.7 98.3,44.3 98.3,16.7 
							" />
      </g>
      <g>
        <polygon class="st0" points="19.7,16.7 19.7,58.4 15.9,58.4 15.9,22.7 11.4,58.4 8.3,58.4 3.7,22.7 3.7,58.4 0,58.4 0,16.7 
				6.3,16.7 10,41.8 13.4,16.7 			" />
      </g>
      <g>
        <path class="st0" d="M65.8,58.4c2.9-4,4.7-8.9,4.7-14.3C70.5,30.8,59.7,20,46.4,20c-13.3,0-24.1,10.8-24.1,24.1
				c0,5.3,1.7,10.3,4.7,14.3h5c-3.6-3.7-5.9-8.7-5.9-14.3c0-11.2,9.1-20.3,20.3-20.3c11.2,0,20.3,9.1,20.3,20.3
				c0,5.6-2.2,10.6-5.9,14.3H65.8z" />
      </g>
      <path class="st0" d="M183.3,58.4h-3.7l-1-9.4h-5.5l-0.9,9.4h-3.8l4.3-41.6h5.8L183.3,58.4z M178.3,45.2l-2.5-22.9l-2.3,22.9H178.3
			z" />
      <g>
        <path class="st0" d="M138.1,53.1c0,1.9-1.1,2.8-2.4,2.8s-2.4-1-2.4-2.8V21.6c0-1.9,1.1-2.8,2.4-2.8s2.4,1,2.4,2.8l0,1.5V31h3.8
				v-6l0-1.7c0-5.2-2.1-7.7-6.3-7.7c-3.8,0-6.2,2.7-6.2,6.8l0,1.5v26l0,1.7c0,5.3,2.1,7.9,6.3,7.9c4.2,0,6.2-2.6,6.2-8V36.3h-7V40
				h3.2v11.7L138.1,53.1z" />
      </g>
      <g>
        <path class="st0" d="M153.7,52.1V41.2l-8.7-6.5V22.7c0-4.8,2.1-7.2,6.3-7.2c4.2,0,6.2,2.4,6.2,7.8l0,1.7V31h-3.9v-8.2l0-1.2
				c0-1.9-1.1-2.8-2.3-2.8c-1.3,0-2.3,1-2.3,2.8v1.2V33l8.6,6.5v12.5c0,4.9-2.2,7.5-6.2,7.5c-4.1,0-6.3-2.5-6.3-7.2l0-1.6v-8.1h4V52
				v1.1c0,1.9,1.1,2.8,2.3,2.8c1.2,0,2.3-1,2.3-2.8L153.7,52.1z" />
      </g>
      <path class="st0" d="M86.3,58.4h-3.8c-0.5-1.4-0.7-2.7-0.8-4.5l0-2.1l0-1.1v-8.1c0-1.7-1-2.5-2.2-2.5h-2.7v18.3h-3.7V16.7h4.8
			c5.4,0,7.5,2,7.5,7.3v7.8c0,3.5-0.6,5-3.3,6c0,0,0.1,0,0.1,0c2.6,0.8,3.2,1.7,3.2,5l0,1.5V52C85.4,54.8,85.7,56.3,86.3,58.4z
			 M76.8,20v16.5h1.3c2.5,0,3.6-1.1,3.6-3.5v-8.5c0-3.4-0.8-4.5-3.3-4.5H76.8z" />
      <path class="st0" d="M197.6,58.4h-3.8c-0.5-1.4-0.7-2.7-0.8-4.5l0-2.1l0-1.1v-8.1c0-1.7-1-2.5-2.2-2.5H188v18.3h-3.7V16.7h4.8
			c5.4,0,7.5,2,7.5,7.3v7.8c0,3.5-0.6,5-3.3,6c0,0,0.1,0,0.1,0c2.6,0.8,3.2,1.7,3.2,5l0,1.5V52C196.7,54.8,196.9,56.3,197.6,58.4z
			 M188,20v16.5h1.3c2.5,0,3.6-1.1,3.6-3.5v-8.5c0-3.4-0.8-4.5-3.3-4.5H188z" />
      <g>
        <polygon class="st0" points="126,16.7 126,58.4 122,58.4 116.3,33.1 116.3,58.4 112.6,58.4 112.6,16.7 116,16.7 122.3,44.3 
				122.3,16.7 			" />
      </g>
    </g>
    <g>
      <line class="st1" x1="218.5" y1="0" x2="218.5" y2="78" />
    </g>
    <g>
      <path class="st0" d="M260.7,28.4c-0.8-1-1.8-1.8-3.1-2.4c-1.3-0.6-2.5-0.9-3.7-0.9c-0.6,0-1.2,0.1-1.8,0.2
			c-0.6,0.1-1.2,0.3-1.7,0.6c-0.5,0.3-0.9,0.7-1.3,1.2c-0.3,0.5-0.5,1.1-0.5,1.9c0,0.6,0.1,1.2,0.4,1.6c0.3,0.4,0.7,0.8,1.2,1.1
			c0.5,0.3,1.1,0.6,1.8,0.9c0.7,0.3,1.5,0.5,2.4,0.8c1.3,0.4,2.6,0.9,4,1.4c1.4,0.5,2.7,1.2,3.8,2.1c1.1,0.9,2.1,1.9,2.8,3.2
			c0.8,1.3,1.1,2.9,1.1,4.7c0,2.2-0.4,4.1-1.2,5.7c-0.8,1.6-1.9,2.9-3.2,3.9c-1.4,1-2.9,1.8-4.7,2.3c-1.8,0.5-3.6,0.7-5.4,0.7
			c-2.7,0-5.3-0.5-7.9-1.4c-2.5-0.9-4.6-2.3-6.3-4l6-6.1c0.9,1.1,2.2,2.1,3.7,2.9c1.5,0.8,3,1.2,4.5,1.2c0.7,0,1.3-0.1,2-0.2
			c0.6-0.1,1.2-0.4,1.7-0.7s0.9-0.8,1.2-1.3c0.3-0.5,0.4-1.2,0.4-1.9c0-0.7-0.2-1.3-0.5-1.8c-0.4-0.5-0.9-1-1.5-1.4
			c-0.7-0.4-1.5-0.8-2.5-1.1c-1-0.3-2.1-0.7-3.4-1.1c-1.2-0.4-2.4-0.9-3.6-1.4c-1.2-0.5-2.2-1.2-3.1-2.1c-0.9-0.8-1.6-1.9-2.2-3.1
			c-0.6-1.2-0.8-2.7-0.8-4.4c0-2.1,0.4-3.9,1.3-5.4c0.9-1.5,2-2.7,3.4-3.7c1.4-1,3-1.7,4.7-2.1c1.8-0.4,3.5-0.7,5.3-0.7
			c2.1,0,4.3,0.4,6.6,1.2c2.2,0.8,4.2,1.9,5.9,3.5L260.7,28.4z" />
      <path class="st0" d="M300.6,48.4c-0.8,1.9-1.9,3.5-3.3,4.8c-1.4,1.3-3.2,2.4-5.2,3.1c-2,0.7-4.3,1.1-6.7,1.1
			c-2.5,0-4.8-0.4-6.8-1.1c-2-0.8-3.7-1.8-5.1-3.1c-1.4-1.3-2.5-2.9-3.2-4.8c-0.8-1.9-1.1-4-1.1-6.2V18.5h9.1v22.9c0,1,0.1,2,0.4,3
			c0.3,0.9,0.7,1.8,1.2,2.5c0.6,0.7,1.3,1.3,2.2,1.7c0.9,0.4,2,0.6,3.3,0.6c1.3,0,2.4-0.2,3.3-0.6c0.9-0.4,1.7-1,2.2-1.7
			c0.6-0.7,1-1.6,1.2-2.5c0.2-0.9,0.4-1.9,0.4-3V18.5h9.2v23.6C301.8,44.5,301.4,46.5,300.6,48.4z" />
      <path class="st0" d="M326.6,28.4c-0.8-1-1.8-1.8-3.1-2.4c-1.3-0.6-2.5-0.9-3.7-0.9c-0.6,0-1.2,0.1-1.8,0.2
			c-0.6,0.1-1.2,0.3-1.7,0.6c-0.5,0.3-0.9,0.7-1.3,1.2c-0.3,0.5-0.5,1.1-0.5,1.9c0,0.6,0.1,1.2,0.4,1.6c0.3,0.4,0.7,0.8,1.2,1.1
			c0.5,0.3,1.1,0.6,1.8,0.9c0.7,0.3,1.5,0.5,2.4,0.8c1.3,0.4,2.6,0.9,4,1.4c1.4,0.5,2.7,1.2,3.8,2.1c1.1,0.9,2.1,1.9,2.8,3.2
			c0.8,1.3,1.1,2.9,1.1,4.7c0,2.2-0.4,4.1-1.2,5.7c-0.8,1.6-1.9,2.9-3.2,3.9c-1.4,1-2.9,1.8-4.7,2.3c-1.8,0.5-3.6,0.7-5.4,0.7
			c-2.7,0-5.3-0.5-7.9-1.4c-2.5-0.9-4.6-2.3-6.3-4l6-6.1c0.9,1.1,2.2,2.1,3.7,2.9c1.5,0.8,3,1.2,4.5,1.2c0.7,0,1.3-0.1,2-0.2
			c0.6-0.1,1.2-0.4,1.7-0.7c0.5-0.3,0.9-0.8,1.2-1.3c0.3-0.5,0.4-1.2,0.4-1.9c0-0.7-0.2-1.3-0.5-1.8c-0.4-0.5-0.9-1-1.5-1.4
			c-0.7-0.4-1.5-0.8-2.5-1.1c-1-0.3-2.1-0.7-3.4-1.1c-1.2-0.4-2.4-0.9-3.6-1.4c-1.2-0.5-2.2-1.2-3.1-2.1c-0.9-0.8-1.6-1.9-2.2-3.1
			c-0.6-1.2-0.8-2.7-0.8-4.4c0-2.1,0.4-3.9,1.3-5.4c0.9-1.5,2-2.7,3.4-3.7c1.4-1,3-1.7,4.7-2.1c1.8-0.4,3.5-0.7,5.3-0.7
			c2.1,0,4.3,0.4,6.6,1.2c2.2,0.8,4.2,1.9,5.9,3.5L326.6,28.4z" />
      <path class="st0" d="M354.1,26.3v30.1H345V26.3h-10.7v-7.8h30.6v7.8H354.1z" />
      <path class="st0" d="M388.9,56.5l-2.9-7.5h-14.7l-2.8,7.5h-10l15.9-38h8.9l15.8,38H388.9z M378.7,28.7l-4.8,13h9.5L378.7,28.7z" />
      <path class="st0" d="M401.7,56.5v-38h9.2v38H401.7z" />
      <path class="st0" d="M440.2,56.5l-15.3-24.8h-0.2l0.2,24.8h-8.9v-38h10.5l15.2,24.8h0.2l-0.2-24.8h8.9v38H440.2z" />
      <path class="st0" d="M483.6,56.5l-3-7.5H466l-2.8,7.5h-10l15.9-38h8.9l15.8,38H483.6z M473.4,28.7l-4.8,13h9.5L473.4,28.7z" />
      <path class="st0" d="M496.4,56.5v-38h9.2v30h14.7v8H496.4z" />
      <path class="st0" d="M535.5,40.4v16.1h-9.2V40.4l-14.3-21.9h11.1l8.1,14l8.1-14h10.7L535.5,40.4z" />
      <path class="st0" d="M571.9,26.3v30.1h-9.2V26.3H552v-7.8h30.6v7.8H571.9z" />
      <path class="st0" d="M587.3,56.5v-38h9.2v38H587.3z" />
      <path class="st0" d="M628.9,55.8c-2.5,1.1-5.3,1.7-8.5,1.7c-2.9,0-5.6-0.5-8.1-1.4c-2.5-1-4.6-2.3-6.5-4.1
			c-1.8-1.8-3.3-3.9-4.3-6.4c-1-2.5-1.6-5.2-1.6-8.2c0-3,0.5-5.8,1.6-8.3c1.1-2.5,2.5-4.6,4.4-6.3c1.9-1.7,4-3.1,6.5-4
			c2.5-0.9,5.2-1.4,8.1-1.4c2.7,0,5.3,0.5,7.9,1.4c2.6,0.9,4.7,2.3,6.3,4.2l-6.2,6.2c-0.9-1.2-2-2.1-3.4-2.6
			c-1.4-0.6-2.8-0.9-4.3-0.9c-1.6,0-3.1,0.3-4.4,0.9c-1.3,0.6-2.5,1.4-3.5,2.4c-1,1-1.7,2.3-2.3,3.7c-0.5,1.4-0.8,3-0.8,4.6
			c0,1.7,0.3,3.3,0.8,4.7c0.5,1.4,1.3,2.7,2.2,3.7c0.9,1,2.1,1.8,3.4,2.4c1.3,0.6,2.8,0.9,4.3,0.9c1.8,0,3.4-0.4,4.8-1.1
			c1.4-0.7,2.4-1.6,3.3-2.8l6.4,6C633.4,53.2,631.3,54.7,628.9,55.8z" />
      <path class="st0" d="M659.6,28.4c-0.8-1-1.8-1.8-3.1-2.4c-1.3-0.6-2.5-0.9-3.7-0.9c-0.6,0-1.2,0.1-1.8,0.2
			c-0.6,0.1-1.2,0.3-1.7,0.6c-0.5,0.3-0.9,0.7-1.3,1.2c-0.3,0.5-0.5,1.1-0.5,1.9c0,0.6,0.1,1.2,0.4,1.6c0.3,0.4,0.7,0.8,1.2,1.1
			c0.5,0.3,1.1,0.6,1.8,0.9c0.7,0.3,1.5,0.5,2.4,0.8c1.3,0.4,2.6,0.9,4,1.4c1.4,0.5,2.7,1.2,3.8,2.1c1.1,0.9,2.1,1.9,2.8,3.2
			c0.8,1.3,1.1,2.9,1.1,4.7c0,2.2-0.4,4.1-1.2,5.7c-0.8,1.6-1.9,2.9-3.2,3.9c-1.4,1-2.9,1.8-4.7,2.3c-1.8,0.5-3.6,0.7-5.4,0.7
			c-2.7,0-5.3-0.5-7.9-1.4c-2.5-0.9-4.6-2.3-6.3-4l6-6.1c0.9,1.1,2.2,2.1,3.7,2.9c1.5,0.8,3,1.2,4.5,1.2c0.7,0,1.3-0.1,2-0.2
			c0.6-0.1,1.2-0.4,1.7-0.7c0.5-0.3,0.9-0.8,1.2-1.3c0.3-0.5,0.4-1.2,0.4-1.9c0-0.7-0.2-1.3-0.5-1.8c-0.4-0.5-0.9-1-1.5-1.4
			c-0.7-0.4-1.5-0.8-2.5-1.1c-1-0.3-2.1-0.7-3.3-1.1c-1.2-0.4-2.4-0.9-3.6-1.4c-1.2-0.5-2.2-1.2-3.1-2.1c-0.9-0.8-1.6-1.9-2.2-3.1
			c-0.6-1.2-0.8-2.7-0.8-4.4c0-2.1,0.4-3.9,1.3-5.4c0.9-1.5,2-2.7,3.4-3.7c1.4-1,3-1.7,4.7-2.1c1.8-0.4,3.5-0.7,5.3-0.7
			c2.1,0,4.3,0.4,6.6,1.2c2.2,0.8,4.2,1.9,5.9,3.5L659.6,28.4z" />
    </g>
  </g>
</svg>
